<mxfile host="app.diagrams.net" agent="Mozilla/5.0 (Windows NT 10.0; Win64; x64) AppleWebKit/537.36 (KHTML, like Gecko) Chrome/132.0.0.0 Safari/537.36" version="26.0.6">
  <diagram name="Page-1" id="oOnUDYet67SNyl4n0U7W">
    <mxGraphModel dx="1050" dy="562" grid="1" gridSize="10" guides="1" tooltips="1" connect="1" arrows="1" fold="1" page="1" pageScale="1" pageWidth="850" pageHeight="1100" math="0" shadow="0">
      <root>
        <mxCell id="0" />
        <mxCell id="1" parent="0" />
        <mxCell id="A64FUQjrGfB-0dtbxXoB-35" style="edgeStyle=orthogonalEdgeStyle;rounded=0;orthogonalLoop=1;jettySize=auto;html=1;entryX=0.5;entryY=0;entryDx=0;entryDy=0;" edge="1" parent="1" source="A64FUQjrGfB-0dtbxXoB-2" target="A64FUQjrGfB-0dtbxXoB-32">
          <mxGeometry relative="1" as="geometry" />
        </mxCell>
        <mxCell id="A64FUQjrGfB-0dtbxXoB-44" style="edgeStyle=orthogonalEdgeStyle;rounded=0;orthogonalLoop=1;jettySize=auto;html=1;exitX=1;exitY=0;exitDx=0;exitDy=0;entryX=0.75;entryY=0;entryDx=0;entryDy=0;" edge="1" parent="1" source="A64FUQjrGfB-0dtbxXoB-2" target="A64FUQjrGfB-0dtbxXoB-34">
          <mxGeometry relative="1" as="geometry" />
        </mxCell>
        <mxCell id="A64FUQjrGfB-0dtbxXoB-2" value="&lt;b style=&quot;font-family: &amp;quot;Times New Roman&amp;quot;; font-size: 14px;&quot;&gt;User Registration&lt;/b&gt;" style="ellipse;whiteSpace=wrap;html=1;" vertex="1" parent="1">
          <mxGeometry x="370" y="150" width="145" height="100" as="geometry" />
        </mxCell>
        <mxCell id="A64FUQjrGfB-0dtbxXoB-41" style="edgeStyle=orthogonalEdgeStyle;rounded=0;orthogonalLoop=1;jettySize=auto;html=1;exitX=0;exitY=0;exitDx=0;exitDy=0;" edge="1" parent="1" source="A64FUQjrGfB-0dtbxXoB-3">
          <mxGeometry relative="1" as="geometry">
            <mxPoint x="280" y="330" as="targetPoint" />
          </mxGeometry>
        </mxCell>
        <mxCell id="A64FUQjrGfB-0dtbxXoB-56" style="edgeStyle=orthogonalEdgeStyle;rounded=0;orthogonalLoop=1;jettySize=auto;html=1;exitX=1;exitY=1;exitDx=0;exitDy=0;entryX=0.75;entryY=1;entryDx=0;entryDy=0;" edge="1" parent="1" source="A64FUQjrGfB-0dtbxXoB-3" target="A64FUQjrGfB-0dtbxXoB-34">
          <mxGeometry relative="1" as="geometry" />
        </mxCell>
        <mxCell id="A64FUQjrGfB-0dtbxXoB-3" value="&lt;b style=&quot;font-family: &amp;quot;Times New Roman&amp;quot;; font-size: 14px;&quot;&gt;User Profile&amp;nbsp;&lt;/b&gt;&lt;div&gt;&lt;b style=&quot;font-family: &amp;quot;Times New Roman&amp;quot;; font-size: 14px;&quot;&gt;Management&lt;/b&gt;&lt;/div&gt;" style="ellipse;whiteSpace=wrap;html=1;" vertex="1" parent="1">
          <mxGeometry x="370" y="370" width="150" height="95" as="geometry" />
        </mxCell>
        <mxCell id="A64FUQjrGfB-0dtbxXoB-53" style="edgeStyle=orthogonalEdgeStyle;rounded=0;orthogonalLoop=1;jettySize=auto;html=1;entryX=0.25;entryY=1;entryDx=0;entryDy=0;" edge="1" parent="1" source="A64FUQjrGfB-0dtbxXoB-4" target="A64FUQjrGfB-0dtbxXoB-34">
          <mxGeometry relative="1" as="geometry">
            <Array as="points">
              <mxPoint x="555" y="308" />
              <mxPoint x="555" y="350" />
              <mxPoint x="615" y="350" />
            </Array>
          </mxGeometry>
        </mxCell>
        <mxCell id="A64FUQjrGfB-0dtbxXoB-4" value="&lt;b style=&quot;font-family: &amp;quot;Times New Roman&amp;quot;; font-size: 14px;&quot;&gt;User Login&lt;/b&gt;" style="ellipse;whiteSpace=wrap;html=1;" vertex="1" parent="1">
          <mxGeometry x="370" y="260" width="150" height="95" as="geometry" />
        </mxCell>
        <mxCell id="A64FUQjrGfB-0dtbxXoB-38" style="edgeStyle=orthogonalEdgeStyle;rounded=0;orthogonalLoop=1;jettySize=auto;html=1;entryX=0;entryY=0.5;entryDx=0;entryDy=0;" edge="1" parent="1" source="A64FUQjrGfB-0dtbxXoB-32" target="A64FUQjrGfB-0dtbxXoB-4">
          <mxGeometry relative="1" as="geometry" />
        </mxCell>
        <mxCell id="A64FUQjrGfB-0dtbxXoB-32" value="&lt;font face=&quot;Times New Roman&quot;&gt;&lt;span style=&quot;font-size: 14px;&quot;&gt;&lt;b&gt;Clients&lt;/b&gt;&lt;/span&gt;&lt;/font&gt;" style="rounded=0;whiteSpace=wrap;html=1;" vertex="1" parent="1">
          <mxGeometry x="190" y="286.5" width="120" height="42" as="geometry" />
        </mxCell>
        <mxCell id="A64FUQjrGfB-0dtbxXoB-33" value="" style="shape=partialRectangle;whiteSpace=wrap;html=1;top=0;bottom=0;fillColor=none;rotation=-90;" vertex="1" parent="1">
          <mxGeometry x="618.25" y="241.75" width="33.88" height="130" as="geometry" />
        </mxCell>
        <mxCell id="A64FUQjrGfB-0dtbxXoB-42" style="edgeStyle=orthogonalEdgeStyle;rounded=0;orthogonalLoop=1;jettySize=auto;html=1;entryX=1;entryY=0.5;entryDx=0;entryDy=0;" edge="1" parent="1" source="A64FUQjrGfB-0dtbxXoB-34" target="A64FUQjrGfB-0dtbxXoB-2">
          <mxGeometry relative="1" as="geometry">
            <Array as="points">
              <mxPoint x="640" y="200" />
            </Array>
          </mxGeometry>
        </mxCell>
        <mxCell id="A64FUQjrGfB-0dtbxXoB-47" style="edgeStyle=orthogonalEdgeStyle;rounded=0;orthogonalLoop=1;jettySize=auto;html=1;exitX=0.25;exitY=0;exitDx=0;exitDy=0;entryX=1;entryY=0;entryDx=0;entryDy=0;" edge="1" parent="1" source="A64FUQjrGfB-0dtbxXoB-34" target="A64FUQjrGfB-0dtbxXoB-4">
          <mxGeometry relative="1" as="geometry">
            <Array as="points">
              <mxPoint x="615" y="274" />
            </Array>
          </mxGeometry>
        </mxCell>
        <mxCell id="A64FUQjrGfB-0dtbxXoB-34" value="&lt;b style=&quot;forced-color-adjust: none; color: rgb(0, 0, 0); font-style: normal; font-variant-ligatures: normal; font-variant-caps: normal; letter-spacing: normal; orphans: 2; text-align: center; text-indent: 0px; text-transform: none; widows: 2; word-spacing: 0px; -webkit-text-stroke-width: 0px; white-space: normal; background-color: rgb(251, 251, 251); text-decoration-thickness: initial; text-decoration-style: initial; text-decoration-color: initial; font-family: &amp;quot;Times New Roman&amp;quot;; font-size: 14px;&quot;&gt;User Database&lt;/b&gt;" style="text;whiteSpace=wrap;html=1;" vertex="1" parent="1">
          <mxGeometry x="590" y="290" width="100" height="40" as="geometry" />
        </mxCell>
        <mxCell id="A64FUQjrGfB-0dtbxXoB-37" style="edgeStyle=orthogonalEdgeStyle;rounded=0;orthogonalLoop=1;jettySize=auto;html=1;exitX=0.75;exitY=0;exitDx=0;exitDy=0;entryX=0;entryY=0.6;entryDx=0;entryDy=0;entryPerimeter=0;" edge="1" parent="1" source="A64FUQjrGfB-0dtbxXoB-32" target="A64FUQjrGfB-0dtbxXoB-2">
          <mxGeometry relative="1" as="geometry" />
        </mxCell>
        <mxCell id="A64FUQjrGfB-0dtbxXoB-39" style="edgeStyle=orthogonalEdgeStyle;rounded=0;orthogonalLoop=1;jettySize=auto;html=1;exitX=0;exitY=0;exitDx=0;exitDy=0;entryX=0.907;entryY=0.007;entryDx=0;entryDy=0;entryPerimeter=0;" edge="1" parent="1" source="A64FUQjrGfB-0dtbxXoB-4" target="A64FUQjrGfB-0dtbxXoB-32">
          <mxGeometry relative="1" as="geometry">
            <Array as="points">
              <mxPoint x="392" y="267" />
              <mxPoint x="299" y="267" />
            </Array>
          </mxGeometry>
        </mxCell>
        <mxCell id="A64FUQjrGfB-0dtbxXoB-40" style="edgeStyle=orthogonalEdgeStyle;rounded=0;orthogonalLoop=1;jettySize=auto;html=1;entryX=0;entryY=0.64;entryDx=0;entryDy=0;entryPerimeter=0;" edge="1" parent="1" source="A64FUQjrGfB-0dtbxXoB-32" target="A64FUQjrGfB-0dtbxXoB-3">
          <mxGeometry relative="1" as="geometry">
            <Array as="points">
              <mxPoint x="250" y="431" />
            </Array>
          </mxGeometry>
        </mxCell>
        <mxCell id="A64FUQjrGfB-0dtbxXoB-54" style="edgeStyle=orthogonalEdgeStyle;rounded=0;orthogonalLoop=1;jettySize=auto;html=1;exitX=0.5;exitY=1;exitDx=0;exitDy=0;entryX=1.008;entryY=0.413;entryDx=0;entryDy=0;entryPerimeter=0;" edge="1" parent="1" source="A64FUQjrGfB-0dtbxXoB-34" target="A64FUQjrGfB-0dtbxXoB-3">
          <mxGeometry relative="1" as="geometry">
            <Array as="points">
              <mxPoint x="640" y="409" />
            </Array>
          </mxGeometry>
        </mxCell>
      </root>
    </mxGraphModel>
  </diagram>
</mxfile>
